<svg width="306" height="33" viewBox="0 0 306 33" fill="none" xmlns="http://www.w3.org/2000/svg">
<g clip-path="url(#clip0_10_84)">
<path d="M15 29.5014C15 31.4893 13.4444 33 11.5 33C9.55556 33 8 31.4097 8 29.5014C8 27.5136 9.55556 26.0029 11.5 26.0029C13.4444 25.9233 15 27.5136 15 29.5014Z" fill="#FF4D00"/>
<path d="M29 29.5014C29 31.4893 27.4444 33 25.5 33C23.5556 33 22 31.4097 22 29.5014C22 27.5136 23.5556 26.0029 25.5 26.0029C27.4444 25.9233 29 27.5136 29 29.5014Z" fill="#FF4D00"/>
<path d="M0 27V3H38V27H33.4565L33.2913 7.18118H4.54348L4.62609 27H0Z" fill="#0E0F1D"/>
<path d="M46 27V3H55.8361C57.9672 3 59.7705 3.33333 61.2459 4C62.8033 4.66667 63.9508 5.66667 64.7705 6.91667C65.5902 8.16667 66 9.75 66 11.5C66 13.25 65.5902 14.75 64.7705 16.0833C63.9508 17.3333 62.8033 18.3333 61.2459 19C59.7705 19.6667 57.9672 20 55.8361 20H48.459L50.4262 17.9167V26.9167H46V27ZM50.4262 18.5L48.459 16.3333H55.5902C57.5574 16.3333 59.0328 15.9167 60.0164 15.0833C61 14.25 61.4918 13.0833 61.4918 11.5833C61.4918 10.0833 61 8.91667 60.0164 8.08333C59.0328 7.25 57.5574 6.83333 55.5902 6.83333H48.459L50.4262 4.66667V18.5Z" fill="#0E0F1D"/>
<path d="M72 27V3H76.2973V20L88.9459 3H93V27H88.7027V10L76.0541 27H72Z" fill="#0E0F1D"/>
<path d="M101 26.7949V3H105.297V22.9943H117.216V3H121.595V26.7949H101ZM120.946 32V25.7208L121.919 26.7949H117.135V23.0769H125V32H120.946Z" fill="#0E0F1D"/>
<path d="M135.128 13H147.101V16.6667H135.128V13ZM135.459 23.25H149V27H131V3H148.505V6.75H135.459V23.25Z" fill="#0E0F1D"/>
<path d="M156 27V3H177V27H172.669V5.66667L173.65 6.75H159.268L160.249 5.66667V26.9167H156V27Z" fill="#0E0F1D"/>
<path d="M287.876 11C286.884 11 285.975 10.9203 285.066 10.6812C284.157 10.442 283.496 10.1232 283 9.72464L283.992 7.97101C284.488 8.28985 284.983 8.52898 285.727 8.68841C286.388 8.84783 287.132 9.00725 287.876 9.00725C288.785 9.00725 289.446 8.84783 289.86 8.6087C290.273 8.36957 290.521 7.97101 290.521 7.49275C290.521 7.01449 290.273 6.69565 289.86 6.45652C289.446 6.21739 288.62 6.05797 287.38 6.05797H283.992L284.653 0H292.174V1.83333H285.562L286.802 0.797101L286.306 5.26087L284.983 4.22464H287.711C289.033 4.22464 290.025 4.38406 290.851 4.7029C291.595 4.94203 292.174 5.34058 292.504 5.89855C292.835 6.37681 293 6.93478 293 7.57246C293 8.21014 292.835 8.76812 292.421 9.32609C292.008 9.88406 291.43 10.2826 290.686 10.6014C290.025 10.8406 289.033 11 287.876 11Z" fill="#0E0F1D"/>
<path d="M295 8.55555V7.00741L300.457 0H303.271L297.729 7.00741L296.62 6.68148H306V8.55555H295ZM301.481 11V8.55555L301.736 6.68148V4.64444H303.953V11H301.481Z" fill="#0E0F1D"/>
<path d="M195.083 26C193.178 26 191.439 25.6757 189.866 25.1081C188.293 24.5405 186.885 23.6486 185.726 22.5946C184.567 21.5405 183.656 20.2432 182.994 18.7838C182.331 17.3243 182 15.7027 182 14C182 12.2973 182.331 10.6757 182.994 9.21621C183.656 7.75676 184.567 6.45946 185.726 5.4054C186.885 4.35135 188.293 3.45946 189.866 2.89189C191.439 2.32432 193.178 2 195 2C196.904 2 198.561 2.32432 200.134 2.89189C201.707 3.45946 203.115 4.35135 204.274 5.4054C205.433 6.45946 206.344 7.75676 207.006 9.21621C207.669 10.6757 208 12.2162 208 14C208 15.7027 207.669 17.3243 207.006 18.7838C206.344 20.2432 205.433 21.5405 204.274 22.5946C203.115 23.6486 201.707 24.4595 200.134 25.1081C198.643 25.6757 196.987 26 195.083 26ZM195.083 22.1892C196.325 22.1892 197.401 22.027 198.478 21.6216C199.471 21.2162 200.382 20.6486 201.127 19.9189C201.873 19.1892 202.452 18.2973 202.866 17.3243C203.28 16.3513 203.529 15.2162 203.529 14C203.529 12.7838 203.28 11.7297 202.866 10.7568C202.452 9.78378 201.873 8.89189 201.127 8.16216C200.382 7.43243 199.471 6.86486 198.478 6.45946C197.484 6.05405 196.325 5.89189 195.083 5.89189C193.841 5.89189 192.764 6.05405 191.688 6.45946C190.694 6.86486 189.783 7.43243 189.038 8.16216C188.293 8.89189 187.713 9.78378 187.217 10.7568C186.803 11.7297 186.637 12.7838 186.637 14C186.637 15.2162 186.803 16.2703 187.217 17.2432C187.631 18.2162 188.21 19.1081 189.038 19.8378C189.783 20.5676 190.694 21.1351 191.688 21.5405C192.764 22.027 193.841 22.1892 195.083 22.1892Z" fill="#FF4C00"/>
<path d="M225.972 25.4084C222.966 25.4084 220.448 24.9904 218.417 24.1543C216.387 23.3183 214.762 22.1479 213.625 20.5595C212.487 18.9711 212 17.0482 212 14.8746C212 12.6174 212.569 10.6945 213.625 9.10611C214.762 7.51768 216.305 6.34727 218.417 5.51125C220.529 4.67524 223.048 4.25723 225.972 4.25723C226.053 4.25723 226.134 4.25723 226.297 4.25723C226.459 4.25723 226.622 4.25723 226.784 4.25723C226.947 4.25723 227.028 4.25723 227.109 4.25723C230.034 4.25723 232.552 4.67524 234.664 5.51125C236.776 6.34727 238.319 7.51768 239.375 9.10611C240.431 10.6945 241 12.5338 241 14.791C241 16.9646 240.431 18.8875 239.375 20.4759C238.319 22.0643 236.776 23.2347 234.745 24.0707C232.714 24.9068 230.277 25.3248 227.353 25.3248C227.272 25.3248 227.19 25.3248 226.947 25.3248C226.784 25.3248 226.541 25.3248 226.378 25.3248C226.134 25.4084 225.972 25.4084 225.972 25.4084ZM226.378 21.9807C226.459 21.9807 226.459 21.9807 226.541 21.9807C226.622 21.9807 226.703 21.9807 226.703 21.9807C228.896 21.9807 230.683 21.6463 232.146 21.1447C233.608 20.6431 234.745 19.8071 235.476 18.8039C236.207 17.717 236.613 16.463 236.613 14.8746C236.613 13.2862 236.207 12.0322 235.476 11.0289C234.745 10.0257 233.608 9.18971 232.146 8.6881C230.683 8.18649 228.896 7.93569 226.784 7.93569C226.784 7.93569 226.703 7.93569 226.622 7.93569C226.541 7.93569 226.459 7.93569 226.378 7.93569C224.185 7.93569 222.235 8.18649 220.773 8.6881C219.23 9.18971 218.092 9.94212 217.361 11.0289C216.63 12.0322 216.224 13.3698 216.224 14.9582C216.224 16.5466 216.63 17.8842 217.443 18.8875C218.255 19.8907 219.392 20.7267 220.936 21.2283C222.398 21.7299 224.266 21.9807 226.378 21.9807ZM224.429 27.9164V2H228.49V28H224.429V27.9164Z" fill="#FF4C00"/>
<path d="M259.972 25.4084C256.966 25.4084 254.448 24.9904 252.417 24.1543C250.387 23.3183 248.762 22.1479 247.625 20.5595C246.487 18.9711 246 17.0482 246 14.8746C246 12.6174 246.569 10.6945 247.625 9.10611C248.762 7.51768 250.305 6.34727 252.417 5.51125C254.529 4.67524 257.048 4.25723 259.972 4.25723C260.053 4.25723 260.134 4.25723 260.297 4.25723C260.459 4.25723 260.622 4.25723 260.784 4.25723C260.947 4.25723 261.028 4.25723 261.109 4.25723C264.034 4.25723 266.552 4.67524 268.664 5.51125C270.695 6.34727 272.319 7.51768 273.375 9.10611C274.431 10.6945 275 12.5338 275 14.791C275 16.9646 274.431 18.8875 273.375 20.4759C272.319 22.0643 270.776 23.2347 268.745 24.0707C266.714 24.9068 264.277 25.3248 261.353 25.3248C261.272 25.3248 261.19 25.3248 260.947 25.3248C260.784 25.3248 260.541 25.3248 260.378 25.3248C260.134 25.4084 259.972 25.4084 259.972 25.4084ZM260.378 21.9807C260.459 21.9807 260.459 21.9807 260.541 21.9807C260.622 21.9807 260.703 21.9807 260.703 21.9807C262.896 21.9807 264.683 21.6463 266.146 21.1447C267.608 20.6431 268.745 19.8071 269.476 18.8039C270.207 17.717 270.613 16.463 270.613 14.8746C270.613 13.2862 270.207 12.0322 269.476 11.0289C268.745 10.0257 267.608 9.18971 266.146 8.6881C264.683 8.18649 262.896 7.93569 260.784 7.93569C260.784 7.93569 260.703 7.93569 260.622 7.93569C260.541 7.93569 260.459 7.93569 260.378 7.93569C258.185 7.93569 256.235 8.18649 254.773 8.6881C253.23 9.18971 252.092 9.94212 251.361 11.0289C250.63 12.0322 250.224 13.3698 250.224 14.9582C250.224 16.5466 250.63 17.8842 251.443 18.8875C252.255 19.8907 253.392 20.7267 254.936 21.2283C256.398 21.7299 258.266 21.9807 260.378 21.9807ZM258.429 27.9164V2H262.49V28H258.429V27.9164Z" fill="#FF4C00"/>
</g>
<defs>
<clipPath id="clip0_10_84">
<rect width="306" height="33" fill="white"/>
</clipPath>
</defs>
</svg>
